<mxfile host="Electron" modified="2023-05-25T19:16:26.708Z" agent="Mozilla/5.0 (Macintosh; Intel Mac OS X 10_15_7) AppleWebKit/537.36 (KHTML, like Gecko) draw.io/21.1.2 Chrome/106.0.5249.199 Electron/21.4.3 Safari/537.36" etag="DHVFqZqC5ma0o1RWf76M" version="21.1.2" type="device">
  <diagram name="페이지-1" id="6HMfdOg1glxMT6PPG5qd">
    <mxGraphModel dx="1231" dy="1433" grid="1" gridSize="10" guides="1" tooltips="1" connect="1" arrows="1" fold="1" page="1" pageScale="1" pageWidth="827" pageHeight="1169" math="0" shadow="0">
      <root>
        <object label="" 사용자="" id="0">
          <mxCell />
        </object>
        <mxCell id="1" parent="0" />
        <mxCell id="f0SLl6jKX0nZ-P5srRs3-6" value="&lt;p style=&quot;margin:0px;margin-top:4px;text-align:center;&quot;&gt;&lt;b&gt;지원 정보 관리 시스템&lt;/b&gt;&lt;/p&gt;&lt;hr size=&quot;1&quot;&gt;&lt;div style=&quot;height:2px;&quot;&gt;&lt;/div&gt;" style="verticalAlign=top;align=left;overflow=fill;fontSize=12;fontFamily=Helvetica;html=1;whiteSpace=wrap;" parent="1" vertex="1">
          <mxGeometry x="150" y="190" width="350" height="570" as="geometry" />
        </mxCell>
        <UserObject label="일반 회원" tooltip="" id="GlG0iQ4OJn0zayJ6-DKC-1">
          <mxCell style="shape=umlActor;verticalLabelPosition=bottom;verticalAlign=top;html=1;outlineConnect=0;fontFamily=Helvetica;direction=east;" parent="1" vertex="1">
            <mxGeometry x="80" y="230" width="30" height="60" as="geometry" />
          </mxCell>
        </UserObject>
        <mxCell id="GlG0iQ4OJn0zayJ6-DKC-5" value="지원 정보 조회&lt;br&gt;" style="ellipse;whiteSpace=wrap;html=1;" parent="1" vertex="1">
          <mxGeometry x="315" y="230" width="140" height="70" as="geometry" />
        </mxCell>
        <mxCell id="GlG0iQ4OJn0zayJ6-DKC-22" value="" style="endArrow=none;html=1;rounded=0;entryX=0;entryY=0.5;entryDx=0;entryDy=0;exitX=0.5;exitY=0.5;exitDx=0;exitDy=0;exitPerimeter=0;" parent="1" source="GlG0iQ4OJn0zayJ6-DKC-1" target="GlG0iQ4OJn0zayJ6-DKC-5" edge="1">
          <mxGeometry width="50" height="50" relative="1" as="geometry">
            <mxPoint x="100" y="260" as="sourcePoint" />
            <mxPoint x="310" y="260" as="targetPoint" />
          </mxGeometry>
        </mxCell>
      </root>
    </mxGraphModel>
  </diagram>
</mxfile>
